<svg width="24" height="24" viewBox="0 0 20 20" fill="none"><path fill-rule="evenodd" clip-rule="evenodd" d="M3.173 3.982a.657.657 0 00-.855.166 9.75 9.75 0 00-1.995 6.61.655.655 0 00.958.536l6.516-3.417a.653.653 0 00.03-1.141L3.172 3.982zm2.937 6.255l-4.858 2.547a.659.659 0 00-.305.82 9.83 9.83 0 005.19 5.459.656.656 0 00.93-.594v-7.653a.653.653 0 00-.957-.579zm2.263 3.512v5.43c0 .333.249.613.58.652a9.748 9.748 0 006.847-1.76.656.656 0 00-.045-1.099l-6.396-3.785a.653.653 0 00-.986.562zm8.66 2.462a.657.657 0 00.855-.167 9.75 9.75 0 001.989-6.601.655.655 0 00-.957-.536l-6.507 3.412a.653.653 0 00-.03 1.14l4.65 2.752zm-5.196-9.765V1.022a.657.657 0 00-.579-.651A9.748 9.748 0 004.41 2.124a.656.656 0 00.044 1.098l6.397 3.786a.653.653 0 00.986-.562zm2.264 3.512l4.847-2.541a.659.659 0 00.306-.82 9.829 9.829 0 00-5.18-5.454.656.656 0 00-.93.593V9.38c0 .49.521.806.957.578z" fill="#16CD8E"/></svg>